# xmcd CD database file
#
# Track frame offsets:
#	188
#	14188
#	27013
#	42088
#	57463
#	71113
#	83488
#	96538
#	111163
#	125263
#	139813
#	153238
#
# Disc length: 2197 seconds
#
# Revision: 0
# Processed by: cddbd v1.5.2PL0 Copyright (c) Steve Scherf et al.
# Submitted via: CDex 1.51
#
DISCID=a208930c
DTITLE=Glenn Miller - Vol. II Original Recordings From 1938 To 1942
DYEAR=1994
DGENRE=Jazz
TTITLE0=My Reverie
TTITLE1=And The Angels Sing
TTITLE2=The Chestnut Tree
TTITLE3=Sunrise Serenade
TTITLE4=Three Little Fischies
TTITLE5=To You
TTITLE6=Moon Love
TTITLE7=Pagan Love Song
TTITLE8=Melancholy Lullaby
TTITLE9=My Melancholy Baby
TTITLE10=Alice Blue Gown
TTITLE11=Fools Rush In
EXTD=YEAR: 1994
EXTT0=
EXTT1=
EXTT2=
EXTT3=
EXTT4=
EXTT5=
EXTT6=
EXTT7=
EXTT8=
EXTT9=
EXTT10=
EXTT11=
PLAYORDER=
